<?xml version="1.0" standalone="no"?>
<!DOCTYPE svg PUBLIC "-//W3C//DTD SVG 20010904//EN"
 "http://www.w3.org/TR/2001/REC-SVG-20010904/DTD/svg10.dtd">
<svg version="1.0" xmlns="http://www.w3.org/2000/svg"
 width="512.000000pt" height="512.000000pt" viewBox="0 0 512.000000 512.000000"
 preserveAspectRatio="xMidYMid meet">

<g transform="translate(0.000000,512.000000) scale(0.100000,-0.100000)"
fill="#000000" stroke="none">
<path d="M4330 4784 c-193 -42 -363 -95 -455 -141 -61 -31 -450 -263 -604
-361 l-54 -34 -111 16 c-344 49 -734 49 -1079 0 -60 -9 -115 -13 -122 -10 -7
2 -87 51 -177 108 -437 278 -760 413 -1066 444 l-57 6 -31 -73 c-18 -41 -46
-119 -62 -174 -96 -315 -133 -550 -137 -867 l-2 -208 -40 -52 c-324 -431 -407
-972 -263 -1698 53 -265 135 -471 264 -665 187 -278 427 -478 727 -603 350
-145 680 -178 1729 -169 606 4 648 7 890 57 307 64 622 214 827 395 352 311
541 735 598 1345 50 524 -33 915 -267 1266 -37 56 -72 114 -78 129 -5 14 -10
95 -10 178 0 255 -51 609 -121 835 -45 147 -112 307 -129 309 -8 1 -85 -14
-170 -33z m-3499 -198 c222 -56 468 -173 784 -371 101 -64 200 -122 219 -130
44 -19 122 -19 251 0 55 8 186 20 292 27 218 13 469 2 704 -32 168 -24 178
-22 345 80 553 340 592 359 844 419 94 23 126 27 132 18 15 -24 69 -205 93
-312 38 -172 65 -418 68 -625 2 -215 2 -215 116 -390 124 -190 189 -348 227
-555 27 -141 27 -566 0 -740 -65 -431 -206 -759 -421 -984 -262 -274 -620
-434 -1105 -493 -136 -16 -1249 -15 -1500 1 -417 28 -624 76 -861 198 -260
134 -485 365 -622 639 -82 163 -135 354 -182 649 -22 139 -31 496 -16 621 35
277 121 498 282 719 32 44 62 93 68 108 6 16 11 107 11 215 0 251 27 481 80
692 29 116 80 270 90 270 4 0 50 -11 101 -24z"/>
<path d="M3420 2798 c-102 -5 -612 -10 -1135 -12 -946 -3 -950 -3 -1023 -25
-173 -51 -308 -148 -422 -301 -160 -215 -213 -492 -160 -830 27 -172 52 -257
112 -380 46 -93 63 -116 147 -200 133 -131 248 -195 471 -259 338 -97 667
-127 1315 -118 493 7 689 31 1000 123 322 96 512 246 630 497 72 152 115 357
115 542 0 155 -13 237 -54 358 -94 276 -308 497 -557 576 -53 17 -231 45 -249
39 -3 -1 -88 -5 -190 -10z m391 -210 c128 -47 216 -114 306 -230 168 -219 212
-499 127 -823 -75 -291 -227 -449 -523 -545 -136 -44 -306 -83 -466 -106 -145
-22 -954 -31 -1190 -15 -463 33 -804 133 -973 286 -124 113 -196 273 -232 520
-17 111 -14 295 4 386 50 241 214 443 411 508 125 41 205 44 675 31 340 -9
553 -9 975 0 297 6 542 14 545 17 3 3 66 3 140 0 111 -3 147 -9 201 -29z"/>
<path d="M1627 2330 c-169 -43 -309 -207 -352 -415 -61 -295 93 -600 339 -670
191 -55 396 44 498 240 50 96 70 181 71 295 1 114 -14 180 -61 280 -48 103
-161 217 -247 250 -67 25 -187 35 -248 20z m199 -203 c139 -72 211 -295 154
-479 -37 -121 -109 -200 -204 -225 -174 -45 -326 124 -327 363 0 260 194 436
377 341z"/>
<path d="M3370 2322 c-153 -51 -277 -196 -325 -382 -21 -82 -21 -228 0 -311
41 -159 147 -299 273 -361 62 -31 73 -33 172 -33 99 0 109 2 173 34 126 63
236 213 271 368 60 270 -55 553 -269 659 -62 31 -86 37 -157 40 -62 3 -97 0
-138 -14z m235 -202 c183 -113 215 -447 59 -619 -52 -58 -106 -84 -175 -84
-219 -1 -353 326 -232 568 27 56 84 119 125 141 68 36 160 33 223 -6z"/>
</g>
</svg>
