<?xml version="1.0" standalone="no"?>
<!DOCTYPE svg PUBLIC "-//W3C//DTD SVG 20010904//EN"
 "http://www.w3.org/TR/2001/REC-SVG-20010904/DTD/svg10.dtd">
<svg version="1.0" xmlns="http://www.w3.org/2000/svg"
 width="512.000000pt" height="512.000000pt" viewBox="0 0 512.000000 512.000000"
 preserveAspectRatio="xMidYMid meet">

<g transform="translate(0.000000,512.000000) scale(0.100000,-0.100000)"
fill="#000000" stroke="none">
<path d="M372 5024 c-96 -26 -187 -96 -240 -185 -55 -91 -52 24 -52 -2279 0
-2303 -3 -2188 52 -2279 30 -51 85 -107 138 -141 100 -64 -49 -60 2316 -58
l2149 3 57 23 c67 27 143 93 186 160 66 102 62 -51 62 2292 0 2320 3 2185 -56
2286 -37 63 -125 139 -192 166 l-57 23 -2155 2 c-1846 2 -2163 0 -2208 -13z
m4394 -179 c30 -19 60 -49 79 -79 l30 -49 0 -2157 0 -2157 -30 -49 c-19 -30
-49 -60 -79 -79 l-49 -30 -2157 0 -2157 0 -49 30 c-30 19 -60 49 -79 79 l-30
49 0 2156 0 2156 28 47 c30 51 70 84 126 104 29 11 444 13 2177 11 l2141 -2
49 -30z"/>
<path d="M1145 4217 c-106 -36 -196 -113 -237 -204 -33 -74 -31 -200 5 -274
34 -70 109 -142 185 -177 49 -23 70 -27 152 -27 83 0 103 4 153 27 224 105
280 386 111 556 -74 73 -146 105 -249 109 -48 2 -96 -2 -120 -10z m168 -148
c44 -12 102 -59 124 -102 39 -76 7 -181 -70 -234 -36 -25 -49 -28 -118 -28
-70 0 -82 3 -121 30 -124 86 -112 251 23 319 57 28 101 32 162 15z"/>
<path d="M3287 3290 c-170 -19 -329 -82 -464 -184 l-73 -55 0 73 c0 58 -4 79
-19 97 l-19 24 -315 3 -315 3 -28 -25 -29 -24 -3 -1109 c-1 -609 0 -1123 3
-1141 3 -18 15 -42 26 -53 18 -18 36 -19 394 -19 l376 0 24 25 25 24 0 563 c1
861 12 945 144 1065 117 107 294 123 396 35 42 -35 62 -70 83 -142 6 -22 12
-323 16 -783 l6 -749 24 -19 c22 -18 43 -19 338 -19 l314 0 24 25 25 24 0 778
c0 774 -5 931 -35 1048 -21 82 -84 211 -131 267 -159 191 -484 301 -787 268z
m208 -160 c105 -12 248 -58 324 -103 112 -67 201 -199 237 -352 15 -62 18
-165 21 -852 l4 -783 -210 0 -210 0 -4 693 c-3 474 -8 708 -15 742 -54 232
-246 362 -480 327 -195 -30 -351 -163 -407 -346 -42 -136 -46 -213 -52 -828
l-5 -588 -259 0 -259 0 0 1025 0 1025 199 0 199 0 4 -140 c3 -156 10 -173 76
-186 31 -6 37 -2 120 86 140 148 274 230 432 264 66 14 95 18 175 24 11 1 60
-3 110 -8z"/>
<path d="M923 3240 c-12 -5 -26 -18 -32 -29 -8 -14 -11 -370 -11 -1151 l0
-1131 25 -24 24 -25 314 0 c295 0 316 1 338 19 l24 19 3 1129 c2 792 -1 1136
-9 1154 -5 15 -22 31 -35 38 -30 13 -607 14 -641 1z m527 -1175 l0 -1025 -205
0 -205 0 0 1025 0 1025 205 0 205 0 0 -1025z"/>
</g>
</svg>
