<?xml version="1.0" standalone="no"?>
<!DOCTYPE svg PUBLIC "-//W3C//DTD SVG 20010904//EN"
 "http://www.w3.org/TR/2001/REC-SVG-20010904/DTD/svg10.dtd">
<svg version="1.0" xmlns="http://www.w3.org/2000/svg"
 width="100.000000pt" height="100.000000pt" viewBox="0 0 100.000000 100.000000"
 preserveAspectRatio="xMidYMid meet">
<metadata>
Created by potrace 1.10, written by Peter Selinger 2001-2011
</metadata>
<g transform="translate(0.000000,100.000000) scale(0.100000,-0.100000)"
fill="#000000" stroke="none">
<path d="M386 944 c-76 -18 -149 -60 -209 -121 -62 -61 -96 -119 -119 -202
-72 -261 99 -528 369 -573 305 -51 576 220 525 525 -45 267 -301 435 -566 371z
m264 -53 c146 -56 248 -188 266 -344 l6 -52 -75 3 c-68 3 -74 5 -70 23 3 10
-2 41 -11 69 -11 32 -14 64 -10 90 15 90 -29 122 -111 80 -32 -16 -46 -18 -69
-10 -37 13 -115 13 -152 0 -23 -8 -37 -6 -69 10 -85 43 -122 18 -112 -77 4
-36 1 -65 -9 -88 -8 -19 -14 -48 -14 -64 l0 -29 -70 -4 c-69 -3 -70 -3 -70 22
0 44 30 143 57 189 56 96 146 166 253 196 72 20 188 14 260 -14z m-290 -180
c21 -14 30 -15 60 -4 45 15 115 15 160 0 30 -11 39 -10 60 4 66 45 90 31 74
-44 -7 -34 -6 -49 9 -77 22 -43 18 -110 -10 -149 -10 -14 -41 -37 -69 -51 -43
-22 -61 -25 -149 -24 -112 1 -152 13 -199 63 -37 38 -47 111 -22 160 13 23 15
44 10 76 -11 78 10 91 76 46z m-130 -241 c0 -5 -10 -10 -22 -10 -13 0 -47 -3
-75 -6 -45 -6 -53 -4 -53 10 0 13 12 16 75 16 43 0 75 -4 75 -10z m690 -6 c0
-14 -8 -16 -52 -10 -29 3 -63 6 -75 6 -13 0 -23 5 -23 10 0 6 32 10 75 10 63
0 75 -3 75 -16z m-656 -59 c18 -21 55 -45 88 -59 67 -26 62 -46 -10 -46 -38 0
-51 6 -88 40 -45 41 -80 51 -90 25 -3 -8 6 -29 20 -46 14 -17 26 -37 26 -46 0
-8 13 -28 29 -44 24 -24 38 -29 75 -29 l46 0 0 -51 0 -50 -52 28 c-101 54
-195 172 -214 270 -6 31 -6 32 37 36 101 9 100 9 133 -28z m645 19 c10 -9 -26
-101 -59 -152 -45 -69 -67 -90 -145 -137 l-60 -36 -5 85 c-4 67 -10 91 -28
115 l-22 30 37 10 c50 14 110 55 118 82 7 20 11 21 84 14 42 -4 78 -9 80 -11z
m-357 -115 c30 -16 48 -71 48 -147 l0 -69 -31 -7 c-40 -8 -98 -8 -138 0 l-31
7 0 68 c0 75 9 108 40 139 22 22 78 27 112 9z m-220 -49 c21 0 38 -4 38 -10 0
-17 -87 -12 -104 6 -24 23 -19 37 6 20 12 -9 39 -16 60 -16z"/>
</g>
</svg>
